<svg xmlns="http://www.w3.org/2000/svg" width="325" height="90"><defs><style>.prefix__cls-2{fill-rule:evenodd}</style></defs><g id="prefix__main"><path id="prefix___bg" fill="#fff" d="M0 0h325v90H0z"/><g id="prefix__pkg_name"><path id="prefix__shikisai" class="prefix__cls-2" d="M390.779 74.6c0-8.785-6.337-12.6-12.313-15.553-6.481-3.24-11.521-5.184-11.521-10.873 0-3.96 3.456-6.048 7.561-6.048a15.587 15.587 0 0110.368 3.312l3.889-5.9a24.41 24.41 0 00-14.185-4.464c-9.433 0-15.194 5.761-15.194 13.537 0 10.009 7.633 13.321 15.122 17.137 4.68 2.376 8.784 4.824 8.784 9.289 0 4.968-3.672 7.345-9 7.345a17.527 17.527 0 01-10.945-3.888l-4.105 5.544a23.381 23.381 0 0015.41 5.328c8.784-.002 16.129-5.33 16.129-14.766zm47.664 13.9V35.936h-7.2v23.186h-25.2V35.936h-7.2V88.5h7.2V65.89h25.2V88.5h7.2zm18 0V35.936h-7.2V88.5h7.2zm50.979 0l-25.565-29.378 22.178-23.186h-9.217L474.44 57.465V35.936h-7.2V88.5h7.2V66.826l2.592-2.664L498.13 88.5h9.289zm13.533 0V35.936h-7.2V88.5h7.2zm40.175-13.9c0-8.785-6.337-12.6-12.313-15.553-6.481-3.24-11.521-5.184-11.521-10.873 0-3.96 3.456-6.048 7.56-6.048a15.588 15.588 0 0110.369 3.312l3.889-5.9a24.411 24.411 0 00-14.186-4.464c-9.433 0-15.193 5.761-15.193 13.537 0 10.009 7.633 13.321 15.121 17.137 4.681 2.376 8.785 4.824 8.785 9.289 0 4.968-3.672 7.345-9 7.345a17.531 17.531 0 01-10.941-3.891l-4.1 5.544a23.379 23.379 0 0015.4 5.329c8.785 0 16.13-5.328 16.13-14.764zm48.67 13.9l-20.3-52.564h-4.609L564.727 88.5h7.632l6.341-16.993h16.777L601.81 88.5h7.99zm-16.847-23.762h-11.737l5.472-14.761.36-1.3a6.689 6.689 0 00.433 1.368zM624.2 88.5V35.936H617V88.5h7.2z" transform="translate(-359)"/><path id="prefix__color-unit_management_tool" data-name="color-unit management tool" class="prefix__cls-2" d="M371.852 23.363l-1.043-.714a5.3 5.3 0 01-4.626 2.788c-2.867 0-4.984-2.754-4.984-6.052 0-3.2 2.117-5.814 5.18-5.814a5.072 5.072 0 014.169 2.21l1.076-.884a6.614 6.614 0 00-5.441-2.618c-3.583 0-6.385 3.162-6.385 7.174 0 4.08 2.769 7.276 6.483 7.276a6.52 6.52 0 005.571-3.366zm15.7-3.876a6.913 6.913 0 10-13.813 0 6.914 6.914 0 1013.815 0zm-1.4 0c0 3.434-2.346 5.95-5.506 5.95s-5.5-2.516-5.5-5.95 2.345-5.916 5.5-5.916 5.507 2.482 5.507 5.916zm5.929 6.834V1.5h-1.336v24.82h1.336zm17-6.834a6.913 6.913 0 10-13.813 0 6.914 6.914 0 1013.819 0zm-1.4 0c0 3.434-2.345 5.95-5.5 5.95s-5.506-2.516-5.506-5.95 2.346-5.916 5.506-5.916 5.505 2.482 5.505 5.916zm11.928-6.187a3.257 3.257 0 00-2.573-1.02 3.851 3.851 0 00-3.421 2.448v-2.04h-1.336v13.633h1.336v-8.3c0-2.108 1.564-4.522 3.29-4.522a2.553 2.553 0 011.922.85zm8.015 6.018v-1.36h-6.842v1.36h6.842zm14.431 7V12.687h-1.336v8.364a4.524 4.524 0 01-4.332 4.454A3.483 3.483 0 01432.8 21.7v-9.01h-1.336v9.21a4.587 4.587 0 004.854 4.828 4.892 4.892 0 004.4-2.652v2.244h1.336zm14.823 0v-9.211a4.587 4.587 0 00-4.854-4.828 4.893 4.893 0 00-4.4 2.652v-2.244h-1.334v13.634h1.336v-8.364a4.524 4.524 0 014.333-4.454 3.482 3.482 0 013.583 3.808v9.01h1.336zm5.343-17.442V6.159h-1.336v2.72h1.336zm0 17.442V12.687h-1.336v13.634h1.336zm8.372 0V25.1h-.815a1.618 1.618 0 01-1.726-1.632v-9.557h2.508v-1.224h-2.508V6.3h-1.336v6.392h-2.052v1.224h2.052v9.52a2.769 2.769 0 002.932 2.89h.945zm28.472 0v-9.211c0-2.72-1.433-4.828-4.3-4.828a5.608 5.608 0 00-4.691 2.754 3.788 3.788 0 00-4.007-2.754 4.919 4.919 0 00-4.4 2.652v-2.244h-1.336v13.634h1.336v-8.364a4.537 4.537 0 014.4-4.454c2.183 0 2.965 1.632 2.965 3.808v9.01h1.335v-8.4a4.507 4.507 0 014.4-4.42c1.922 0 2.965 1.632 2.965 3.808v9.01h1.335zm13.879 0v-9.891c0-2.482-1.532-4.148-5.05-4.148a8.7 8.7 0 00-4.5 1.122l.554 1.156a7.122 7.122 0 013.942-.986c1.824 0 3.714.442 3.714 2.992v1.122h-2.671c-4.333 0-6.842 1.564-6.842 4.76 0 2.788 2.118 4.284 4.691 4.284a7.161 7.161 0 004.822-1.972v1.564h1.336zm-1.336-2.958a7.591 7.591 0 01-4.822 2.074 3 3 0 01-3.29-2.992c0-2.516 2.02-3.536 5.571-3.536h2.541v4.454zm15.93 2.958v-9.211a4.587 4.587 0 00-4.854-4.828 4.894 4.894 0 00-4.4 2.652v-2.244h-1.335v13.634h1.335v-8.364a4.524 4.524 0 014.333-4.454 3.482 3.482 0 013.583 3.808v9.01h1.336zm13.878 0v-9.891c0-2.482-1.531-4.148-5.049-4.148a8.7 8.7 0 00-4.5 1.122l.554 1.156a7.12 7.12 0 013.942-.986c1.824 0 3.714.442 3.714 2.992v1.122h-2.672c-4.333 0-6.841 1.564-6.841 4.76 0 2.788 2.117 4.284 4.691 4.284a7.164 7.164 0 004.822-1.972v1.564h1.335zm-1.335-2.958a7.593 7.593 0 01-4.822 2.074 3 3 0 01-3.29-2.992c0-2.516 2.02-3.536 5.571-3.536h2.541v4.454zm16.94 2.856V12.687h-1.336v2.822a5.513 5.513 0 00-4.952-3.23c-3.942 0-6.352 3.434-6.352 7.208 0 4.59 2.606 7.242 6.32 7.242a5.563 5.563 0 004.984-3.23v2.822c0 3.366-2.248 5.2-4.887 5.2a6.339 6.339 0 01-4.788-2.006l-.945.884a7.656 7.656 0 005.668 2.414c3.486.002 6.288-2.446 6.288-6.594zm-1.336-6.664c0 2.992-2.052 5.882-4.887 5.882-3.257 0-5.016-2.346-5.016-5.984 0-3.026 1.694-5.882 4.854-5.882 2.932.003 5.049 2.621 5.049 5.987zm17.005-.238c-.162-3.5-1.889-7.038-6.059-7.038-4.333 0-6.418 3.468-6.418 7 0 3.91 2.15 7.446 6.613 7.446a6.938 6.938 0 005.571-2.482l-.945-.85a5.925 5.925 0 01-4.56 2.04c-3.356 0-5.245-2.652-5.278-6.12h11.076zm-1.628-1.224h-9.383c.359-2.448 1.825-4.522 4.887-4.522a4.591 4.591 0 014.496 4.525zm23.39 8.228v-9.211c0-2.72-1.434-4.828-4.3-4.828a5.609 5.609 0 00-4.692 2.754 3.787 3.787 0 00-4.007-2.754 4.919 4.919 0 00-4.4 2.652v-2.244h-1.333v13.634h1.335v-8.364a4.537 4.537 0 014.4-4.454c2.183 0 2.965 1.632 2.965 3.808v9.01h1.336v-8.4a4.507 4.507 0 014.4-4.42c1.922 0 2.964 1.632 2.964 3.808v9.01h1.336zm15.442-7c-.163-3.5-1.89-7.038-6.06-7.038-4.333 0-6.418 3.468-6.418 7 0 3.91 2.151 7.446 6.614 7.446a6.937 6.937 0 005.57-2.482l-.944-.85a5.928 5.928 0 01-4.561 2.04c-3.356 0-5.245-2.652-5.278-6.12h11.077zm-1.629-1.224h-9.383c.359-2.448 1.825-4.522 4.887-4.522a4.591 4.591 0 014.496 4.521zm15.246 8.228v-9.215a4.587 4.587 0 00-4.854-4.828 4.892 4.892 0 00-4.4 2.652v-2.244h-1.336v13.634h1.336v-8.364a4.524 4.524 0 014.332-4.454 3.483 3.483 0 013.584 3.808v9.01h1.336zm8.144 0V25.1h-.814a1.618 1.618 0 01-1.727-1.632v-9.557h2.508v-1.224h-2.508V6.3h-1.336v6.392h-2.052v1.224h2.052v9.52a2.769 2.769 0 002.932 2.89h.945zm13.878 0V25.1h-.815a1.618 1.618 0 01-1.726-1.632v-9.557h2.508v-1.224h-2.508V6.3h-1.336v6.392H639.6v1.224h2.052v9.52a2.769 2.769 0 002.932 2.89h.945zm16-6.834a6.912 6.912 0 10-13.812 0 6.914 6.914 0 1013.807-.001zm-1.4 0c0 3.434-2.346 5.95-5.506 5.95s-5.506-2.516-5.506-5.95 2.346-5.916 5.506-5.916 5.501 2.481 5.501 5.915zm17.363 0a6.913 6.913 0 10-13.813 0 6.914 6.914 0 1013.808-.001zm-1.4 0c0 3.434-2.345 5.95-5.5 5.95s-5.506-2.516-5.506-5.95 2.346-5.916 5.506-5.916 5.494 2.481 5.494 5.915zm5.929 6.834V1.5h-1.335v24.82h1.335z" transform="translate(-359)"/></g><g id="prefix__icon" stroke="#000" stroke-width="2"><path id="prefix__長方形_1" data-name="長方形 1" fill="none" d="M285 50h40v40h-40z"/><path id="prefix__長方形_1-2" data-name="長方形 1" fill="#2672ff" d="M271 36h40v40h-40z"/></g></g></svg>