<svg xmlns="http://www.w3.org/2000/svg" width="325" height="56"><path d="M88.779 40.6c0-8.785-6.337-12.6-12.313-15.554-6.481-3.24-11.521-5.184-11.521-10.872 0-3.961 3.456-6.049 7.561-6.049a15.588 15.588 0 0110.368 3.312l3.889-5.9a24.412 24.412 0 00-14.185-4.465c-9.433 0-15.194 5.761-15.194 13.538 0 10.008 7.633 13.321 15.122 17.137 4.68 2.376 8.784 4.824 8.784 9.289 0 4.968-3.672 7.344-9 7.344a17.528 17.528 0 01-10.945-3.888l-4.105 5.545a23.383 23.383 0 0015.41 5.328c8.784-.001 16.129-5.329 16.129-14.765zm47.664 13.9V1.935h-7.2v23.186h-25.2V1.935h-7.2V54.5h7.2V31.89h25.2V54.5h7.2zm18 0V1.935h-7.2V54.5h7.2zm50.979 0L179.86 25.121l22.178-23.186h-9.217l-20.378 21.53V1.935h-7.2V54.5h7.2V32.826l2.592-2.664 21.1 24.338h9.289zm13.533 0V1.935h-7.2V54.5h7.2zm40.178-13.9c0-8.785-6.337-12.6-12.313-15.554-6.481-3.24-11.521-5.184-11.521-10.872 0-3.961 3.456-6.049 7.56-6.049a15.589 15.589 0 0110.369 3.312l3.889-5.9a24.413 24.413 0 00-14.186-4.465c-9.433 0-15.193 5.761-15.193 13.538 0 10.008 7.633 13.321 15.121 17.137 4.681 2.376 8.785 4.824 8.785 9.289 0 4.968-3.672 7.344-9 7.344a17.532 17.532 0 01-10.945-3.888l-4.1 5.545A23.38 23.38 0 00243 55.364c8.785 0 16.13-5.328 16.13-14.764zM307.8 54.5L287.5 1.935h-4.609L262.727 54.5h7.632l6.337-16.993h16.777L299.81 54.5h7.99zm-16.849-23.762h-11.735l5.472-14.761.36-1.3a6.731 6.731 0 00.432 1.368zM322.2 54.5V1.935H315V54.5h7.2z" fill-rule="evenodd"/><g stroke="#000" stroke-width="2"><path data-name="長方形 1" fill="none" d="M14 15h40v40H14z"/><path data-name="長方形 1" fill="#2672ff" d="M0 1h40v40H0z"/></g></svg>